#!OML:ASF F:\VICON\USERDATA\INSTALL\rory3\rory3.ASF
:FULLY-SPECIFIED
:DEGREES
50
root 0.309511 18.3769 -6.59142 4.26411 -3.08331 -1.60999
lowerback 13.1895 -1.26335 -0.425731
upperback -2.2221 -1.5384 2.32135
thorax -9.74878 -0.637417 3.07235
lowerneck -19.9885 -2.40192 -1.64887
upperneck 12.7265 -3.30936 2.98258
head 7.24585 -1.37866 0.854292
rclavicle 6.4605e-015 5.56597e-015
rhumerus -68.3275 7.14351 -96.0275
rradius 111.875
rwrist -13.9995
rhand -11.4033 36.6048
rfingers 7.12502
rthumb 14.6319 7.14098
lclavicle 6.4605e-015 5.56597e-015
lhumerus -35.8344 -17.7077 94.0913
lradius 132.442
lwrist 36.7977
lhand -25.5044 -5.00124
lfingers 7.12502
lthumb 1.02446 24.976
rfemur -42.763 0.801781 26.0272
rtibia 51.1968
rfoot 0.0692615 -1.48333
rtoes -12.9884
lfemur 17.9305 -1.86675 -27.2199
ltibia 22.9719
lfoot 27.0888 -13.3919
ltoes -20.5548
51
root 0.325902 18.4136 -6.06796 4.37922 -3.54827 -1.43613
lowerback 12.9961 -1.15011 -0.517084
upperback -2.39575 -1.40958 2.23735
thorax -9.83423 -0.570816 3.00464
lowerneck -19.974 -2.38873 -1.53285
upperneck 13.056 -3.29329 2.75345
head 7.34521 -1.3845 0.761374
rclavicle -3.23025e-015 -3.06128e-014
rhumerus -68.6731 6.4837 -95.7271
rradius 112.144
rwrist -13.8745
rhand -11.6238 36.082
rfingers 7.12502
rthumb 14.4195 6.60294
lclavicle -3.23025e-015 -3.06128e-014
lhumerus -36.6045 -18.4014 94.3456
lradius 132.256
lwrist 36.1032
lhand -25.3777 -5.0644
lfingers 7.12502
lthumb 1.14676 24.9123
rfemur -41.5561 0.92546 26.0486
rtibia 45.7393
rfoot -0.366176 -1.04529
rtoes -11.5513
lfemur 18.2597 -2.16988 -27.7892
ltibia 23.6524
lfoot 29.6995 -11.9939
ltoes -3.99613
52
root 0.337887 18.4464 -5.54804 4.41039 -3.46822 -1.01921
lowerback 12.8958 -1.254 -0.835833
upperback -2.45706 -1.61209 2.12445
thorax -9.8267 -0.653248 3.10387
lowerneck -20.4816 -2.33131 -1.44325
upperneck 13.6311 -3.23128 2.64079
head 7.61543 -1.3514 0.711464
rclavicle 1.34925e-014 -2.38542e-015
rhumerus -68.7953 6.08803 -95.4989
rradius 112.414
rwrist -13.7557
rhand -11.5069 36.3461
rfingers 7.12502
rthumb 14.5321 6.87509
lclavicle 1.34925e-014 -2.38542e-015
lhumerus -37.1533 -18.9481 94.5709
lradius 131.947
lwrist 35.4958
lhand -25.2446 -5.18439
lfingers 7.12502
lthumb 1.27536 24.7915
rfemur -40.2456 0.606281 25.8327
rtibia 40.602
rfoot -0.873751 -0.66671
rtoes -12.4385
lfemur 18.5207 -2.65071 -28.4306
ltibia 24.8855
lfoot 29.9892 -11.6598
ltoes 6.36473
53
root 0.348284 18.4811 -5.03087 4.45661 -3.39069 -0.546025
lowerback 12.7482 -1.36795 -1.24624
upperback -2.48844 -1.84318 2.00674
thorax -9.75298 -0.745866 3.25226
lowerneck -20.8776 -2.26928 -1.49736
upperneck 14.0182 -3.15396 2.7249
head 7.8117 -1.30183 0.7538
rclavicle -4.19933e-015 -2.66371e-014
rhumerus -68.7639 5.78778 -95.2757
rradius 112.57
rwrist -13.6586
rhand -11.401 36.7525
rfingers 7.12502
rthumb 14.6341 7.28882
lclavicle -4.19933e-015 -2.66371e-014
lhumerus -37.5912 -19.4157 94.7532
lradius 131.532
lwrist 34.8468
lhand -25.0703 -4.64063
lfingers 7.12502
lthumb 1.44371 25.3342
rfemur -38.9783 0.388695 25.5503
rtibia 35.9177
rfoot -0.916919 -0.842871
rtoes -15.814
lfemur 18.7009 -3.09649 -29.1149
ltibia 26.5622
lfoot 28.6518 -12.0166
ltoes -6.94746
54
root 0.359362 18.4841 -4.51752 4.42454 -3.13155 0.0212273
lowerback 12.5537 -1.51389 -1.70804
upperback -2.47363 -2.12384 1.88645
thorax -9.59387 -0.862268 3.43219
lowerneck -20.5946 -2.26859 -1.81344
upperneck 13.7201 -3.12292 3.0835
head 7.67585 -1.27332 0.93068
rclavicle 1.70209e-014 5.1684e-015
rhumerus -68.6798 5.46279 -95.0475
rradius 112.72
rwrist -13.3754
rhand -11.2965 37.1635
rfingers 7.12502
rthumb 14.7348 7.70719
lclavicle 1.70209e-014 5.1684e-015
lhumerus -38.2683 -19.7504 95.1839
lradius 131.027
lwrist 33.9871
lhand -24.9226 -4.70776
lfingers 7.12502
lthumb 1.58634 25.2661
rfemur -37.7839 0.19185 25.0882
rtibia 31.9062
rfoot -1.30525 -1.65606
rtoes -16.3316
lfemur 18.7126 -3.42142 -29.7209
ltibia 28.7627
lfoot 26.8994 -13.351
ltoes -12.5391
55
root 0.3693 18.4849 -4.00674 4.28628 -2.76447 0.518081
lowerback 12.3884 -1.64956 -2.03853
upperback -2.27992 -2.37195 1.71072
thorax -9.26237 -0.979088 3.46461
lowerneck -20.7679 -2.31382 -1.78983
upperneck 13.5623 -3.1904 3.11918
head 7.65432 -1.30009 0.929234
rclavicle -2.98177e-015 1.74931e-014
rhumerus -68.225 5.04199 -94.8894
rradius 112.844
rwrist -13.0915
rhand -11.0581 37.4381
rfingers 7.12502
rthumb 14.9645 7.99871
lclavicle -2.98177e-015 1.74931e-014
lhumerus -38.8976 -20.0387 95.5815
lradius 130.449
lwrist 33.3838
lhand -24.903 -4.36949
lfingers 7.12502
lthumb 1.60523 25.6042
rfemur -36.5499 -0.0326423 24.7033
rtibia 28.6407
rfoot -1.98193 -2.64627
rtoes -17.3097
lfemur 18.4082 -3.87097 -30.2146
ltibia 31.507
lfoot 26.083 -13.8358
ltoes -12.3051
56
root 0.38061 18.4769 -3.50229 4.01787 -2.69886 0.750668
lowerback 12.49 -1.68262 -2.20775
upperback -2.04862 -2.45186 1.61475
thorax -9.05985 -1.01882 3.46925
lowerneck -21.1426 -2.30838 -1.73118
upperneck 13.5148 -3.18019 3.04713
head 7.69828 -1.29589 0.894524
rclavicle 1.1778e-014 -1.78906e-014
rhumerus -67.55 4.7256 -94.794
rradius 112.769
rwrist -12.8573
rhand -10.8529 37.3584
rfingers 7.12502
rthumb 15.1622 7.93391
lclavicle 1.1778e-014 -1.78906e-014
lhumerus -39.3167 -20.1336 95.8394
lradius 129.685
lwrist 33.4242
lhand -24.8365 -3.94018
lfingers 7.12502
lthumb 1.66943 26.033
rfemur -35.3618 -0.154128 24.6709
rtibia 26.3775
rfoot -2.73578 -3.31993
rtoes -17.4532
lfemur 17.7378 -3.94176 -30.4066
ltibia 34.8476
lfoot 26.1316 -12.558
ltoes -6.42103
